<svg height="48px" viewBox="0 -54 444 444" width="48px" xmlns="http://www.w3.org/2000/svg"><path d="m444 279.503906c-23.113281-3.886718-40.042969-23.898437-40.042969-47.335937s16.929688-43.449219 40.042969-47.335938v-56.664062h-400v56.664062c23.113281 3.886719 40.042969 23.898438 40.042969 47.335938s-16.929688 43.449219-40.042969 47.335937v56.664063h400zm-312 48.664063h-16v-32h16zm0-40h-16v-32h16zm0-40h-16v-32h16zm0-40h-16v-32h16zm0-40h-16v-32h16zm208 144c0 4.417969-3.582031 8-8 8h-176c-4.417969 0-8-3.582031-8-8v-160c0-4.417969 3.582031-8 8-8h176c4.417969 0 8 3.582031 8 8zm32 16h-16v-32h16zm0-40h-16v-32h16zm0-40h-16v-32h16zm0-40h-16v-32h16zm0-40h-16v-32h16zm0 0"/><path d="m164 160.167969h160v144h-160zm0 0"/><path d="m205.601562 112.167969h84.796876l-15.140626-32.488281zm0 0"/><path d="m0 168.96875 23.921875 51.414062c15.390625-4.09375 31.8125-.339843 43.902344 10.03125-.902344-16.925781-14.871094-30.203124-31.824219-30.246093-4.417969 0-8-3.582031-8-8v-36.175781zm0 0"/><path d="m129.847656 112.167969h37.894532l108-50.398438c4.003906-1.871093 8.765624-.140625 10.632812 3.863281l21.679688 46.535157h70.738281c-.175781-.351563-.433594-.65625-.601563-1.015625-9.878906-21.242188-3.011718-46.515625 16.257813-59.839844l-24-51.3125zm177.792969-38.742188-13.527344-29 14.503907-6.769531 13.519531 29zm16.902344 36.246094-13.527344-29.007813 14.503906-6.753906 13.519531 29zm0 0"/></svg>